# xmcd CD database file
#
# Track frame offsets:
#	183
#	11008
#	22445
#	32845
#	44358
#	59470
#	70470
#	79470
#	91120
#	102795
#	115920
#	129908
#	140533
#	150258
#	162508
#	175020
#
# Disc length: 2487 seconds
#
# Revision: 1
# Processed by: cddbd v1.5.2PL0 Copyright (c) Steve Scherf et al.
# Submitted via: CDex 1.70beta2
#
DISCID=d509b510
DTITLE=Jim Reeves - Greatest
DYEAR=1992
DGENRE=Country
TTITLE0=He'll Have To Go
TTITLE1=Adios Amigo
TTITLE2=Am I Losing You
TTITLE3=I Missed Me
TTITLE4=The Blizzard
TTITLE5=My Lips Are Sealed
TTITLE6=I Won't Forget You
TTITLE7=Yonder Comes A Sucker
TTITLE8=Welcome To My World
TTITLE9=You'll Never Know
TTITLE10=I Fall To Pieces
TTITLE11=You're The Only Good Thing (That Happened To Me)
TTITLE12=When Two Worlds Collide
TTITLE13=Blue Skies
TTITLE14=I Love You Because
TTITLE15=You Belong To Me
EXTD=YEAR: 1992
EXTT0=
EXTT1=
EXTT2=
EXTT3=
EXTT4=
EXTT5=
EXTT6=
EXTT7=
EXTT8=
EXTT9=
EXTT10=
EXTT11=
EXTT12=
EXTT13=
EXTT14=
EXTT15=
PLAYORDER=
